<svg width="24" height="24" viewBox="0 0 24 24" fill="none" xmlns="http://www.w3.org/2000/svg">
<path fill-rule="evenodd" clip-rule="evenodd" d="M17 1.00998L7 1C5.9 1 5 1.89859 5 2.99686V6.99059H7V5L12.5 5H17V6.99059H19V2.99686C19 1.89859 18.1 1.00998 17 1.00998ZM5 8.99216L5 14.0501C5 17.8225 8.13727 21 12.026 21C15.8703 21 18.99 17.836 18.99 14.0501V8.99216H5ZM4.736 6.99216L19.317 6.99216C20.232 6.99216 20.99 7.71702 20.99 8.66253V14.0501C20.99 18.9344 16.981 23 12.026 23C7.04 23 3 18.9344 3 14.0501V8.66253C3 7.71702 3.789 6.99216 4.736 6.99216Z" fill="black"/>
</svg>
