<svg width="24" height="24" viewBox="0 0 24 24" fill="none" xmlns="http://www.w3.org/2000/svg">
<path fill-rule="evenodd" clip-rule="evenodd" d="M7 1L17 1.01C18.1 1.01 19 1.9 19 3V11H17V6L7 6L7 18H12V20H7V21H12V23H7C5.9 23 5 22.1 5 21L5 3C5 1.9 5.9 1 7 1ZM7 4H17V3L7 3V4Z" fill="black"/>
<path d="M21.454 18.0317L18.73 16.6506C18.628 16.6078 18.52 16.5833 18.406 16.5833H17.95V12.9167C17.95 12.4094 17.548 12 17.05 12C16.552 12 16.15 12.4094 16.15 12.9167V19.48C13.99 19.0156 14.026 19.0217 13.948 19.0217C13.762 19.0217 13.594 19.1011 13.474 19.2233L13 19.7122L15.964 22.7311C16.126 22.8961 16.354 23 16.6 23H20.674C21.124 23 21.472 22.6639 21.538 22.2178L21.988 18.9972C21.994 18.9544 22 18.9117 22 18.875C22 18.4961 21.772 18.1661 21.454 18.0317Z" fill="black"/>
</svg>
