<svg width="24" height="24" viewBox="0 0 24 24" fill="none" xmlns="http://www.w3.org/2000/svg">
<path d="M14 11.0001C14.1978 11.0001 14.3911 11.0587 14.5556 11.1686C14.72 11.2785 14.8482 11.4347 14.9239 11.6174C14.9996 11.8001 15.0194 12.0012 14.9808 12.1952C14.9422 12.3892 14.847 12.5673 14.7071 12.7072C14.5673 12.847 14.3891 12.9423 14.1951 12.9809C14.0011 13.0195 13.8 12.9997 13.6173 12.924C13.4346 12.8483 13.2784 12.7201 13.1685 12.5557C13.0586 12.3912 13 12.1979 13 12.0001C13 11.7349 13.1054 11.4805 13.2929 11.293C13.4804 11.1054 13.7348 11.0001 14 11.0001ZM14 8.00009C15.2848 7.99344 16.5422 8.37061 17.6112 9.08328C18.6802 9.79594 19.512 10.8116 20 12.0001C19.5064 13.1846 18.6733 14.1966 17.6056 14.9084C16.5378 15.6202 15.2833 16.0001 14 16.0001C12.7167 16.0001 11.4622 15.6202 10.3944 14.9084C9.32671 14.1966 8.49356 13.1846 8 12.0001C8.488 10.8116 9.3198 9.79594 10.3888 9.08328C11.4578 8.37061 12.7152 7.99344 14 8.00009ZM14 9.50009C13.5055 9.50009 13.0222 9.64671 12.6111 9.92141C12.2 10.1961 11.8795 10.5866 11.6903 11.0434C11.5011 11.5002 11.4516 12.0029 11.548 12.4878C11.6445 12.9728 11.8826 13.4182 12.2322 13.7679C12.5819 14.1175 13.0273 14.3556 13.5123 14.452C13.9972 14.5485 14.4999 14.499 14.9567 14.3098C15.4135 14.1206 15.804 13.8001 16.0787 13.389C16.3534 12.9779 16.5 12.4945 16.5 12.0001C16.5 11.337 16.2366 10.7012 15.7678 10.2323C15.2989 9.76348 14.663 9.50009 14 9.50009Z" fill="black"/>
<path fill-rule="evenodd" clip-rule="evenodd" d="M7 1L17 1.01C18.1 1.01 19 1.9 19 3V7H17V6L7 6L7 18H17V17H19V21C19 22.1 18.1 23 17 23H7C5.9 23 5 22.1 5 21L5 3C5 1.9 5.9 1 7 1ZM7 21H17V20H7V21ZM7 4H17V3L7 3V4Z" fill="black"/>
</svg>
