<svg width="24" height="24" viewBox="0 0 24 24" fill="none" xmlns="http://www.w3.org/2000/svg">
<g clip-path="url(#clip0_323_161)">
<path fill-rule="evenodd" clip-rule="evenodd" d="M20.7522 5.92812C20.9154 6.26311 21.0001 6.62924 21 7V14L18.9455 14V7C18.9455 6.72 18.7195 6.5 18.4318 6.5C18.1442 6.5 17.9182 6.72 17.9182 7V12H15.8636V4C15.8636 3.72 15.6376 3.5 15.35 3.5C15.0624 3.5 14.8364 3.72 14.8364 4V12H12.7818V2.5C12.7818 2.22 12.5558 2 12.2682 2C11.9805 2 11.7545 2.22 11.7545 2.5V12H9.7V4.5C9.7 4.22 9.474 4 9.18637 4C8.89873 4 8.67273 4.22 8.67273 4.5V15H6.61818L5.61146 12.49C5.43682 12.05 5.05673 11.71 4.58418 11.59L4.03973 11.45L6.71064 17.99C7.69682 20.41 10.1006 22 12.7818 22C12.8548 22 12.9276 21.9988 13 21.9963V23.9972C12.9275 23.9991 12.8548 24 12.7818 24C11.0621 24.0012 9.38166 23.4995 7.95841 22.5598C6.53517 21.6201 5.43477 20.2858 4.79991 18.73L2.17009 12.3C1.91328 11.66 1.93382 10.92 2.32419 10.35C2.82755 9.61 3.72128 9.29 4.57391 9.52L5.36491 9.73C5.83746 9.85 6.26891 10.08 6.61818 10.39L6.61818 4.5C6.61834 4.12592 6.70472 3.75663 6.87098 3.41937C7.03724 3.08211 7.27913 2.78547 7.57882 2.55132C7.87852 2.31716 8.22837 2.15146 8.60259 2.06643C8.97682 1.98139 9.36588 1.9792 9.74109 2.06C9.95682 0.89 11.0046 0 12.2682 0C12.7849 0.000929541 13.2894 0.153028 13.7162 0.436556C14.143 0.720084 14.4725 1.12195 14.6617 1.59C15.0434 1.48666 15.4444 1.47065 15.8334 1.54323C16.2224 1.61581 16.589 1.77501 16.9043 2.00838C17.2196 2.24175 17.4752 2.54297 17.6511 2.88847C17.827 3.23397 17.9184 3.6144 17.9182 4V4.55C18.2914 4.47585 18.6768 4.48342 19.0466 4.57218C19.4164 4.66093 19.7613 4.82864 20.0563 5.06316C20.3513 5.29768 20.589 5.59313 20.7522 5.92812Z" fill="black"/>
<path d="M17.5 24C18.081 24 18.5 23.5746 18.5 23H16.5C16.5 23.5746 16.919 24 17.5 24ZM20.3 19.0777C20.3 17.6169 19.579 16.3638 18.2 16.0385V15.6923C18.2 15.2977 17.899 15 17.5 15C17.101 15 16.8 15.2977 16.8 15.6923V16.0385C15.421 16.3638 14.7 17.61 14.7 19.0777V21H14V22H21V21H20.3V19.0777Z" fill="black"/>
</g>
<defs>
<clipPath id="clip0_323_161">
<rect width="24" height="24" fill="white"/>
</clipPath>
</defs>
</svg>
