<svg width="24" height="24" viewBox="0 0 24 24" fill="none" xmlns="http://www.w3.org/2000/svg">
<path fill-rule="evenodd" clip-rule="evenodd" d="M15 1L5 1.01C3.9 1.01 3 1.9 3 3V12V21C3 22.1 3.9 23 5 23H9V21H5V20H9V18H5V6H15V10H17V3C17 1.9 16.1 1 15 1ZM15 4H5V3H15V4Z" fill="black"/>
<path d="M20.1752 12.8C19.9564 12.8 19.7466 12.8948 19.5919 13.0636C19.4372 13.2324 19.3503 13.4613 19.3503 13.7V16.4H18.8004V12.5C18.8004 12.2613 18.7135 12.0324 18.5589 11.8636C18.4042 11.6948 18.1944 11.6 17.9756 11.6C17.7569 11.6 17.5471 11.6948 17.3924 11.8636C17.2377 12.0324 17.1508 12.2613 17.1508 12.5V16.4H16.6009V11.9C16.6009 11.6613 16.514 11.4324 16.3593 11.2636C16.2046 11.0948 15.9948 11 15.7761 11C15.5573 11 15.3475 11.0948 15.1928 11.2636C15.0381 11.4324 14.9512 11.6613 14.9512 11.9V16.4H14.4014V13.1C14.4014 12.8613 14.3145 12.6324 14.1598 12.4636C14.0051 12.2948 13.7953 12.2 13.5765 12.2C13.3578 12.2 13.148 12.2948 12.9933 12.4636C12.8386 12.6324 12.7517 12.8613 12.7517 13.1V19.586L11.531 17.426C11.4157 17.2223 11.2311 17.0769 11.0176 17.0218C10.8042 16.9666 10.5794 17.0063 10.3927 17.132C10.206 17.2577 10.0728 17.4592 10.0222 17.6921C9.97169 17.925 10.008 18.1703 10.1232 18.374L11.9434 21.578C12.1897 22.0126 12.5336 22.3713 12.9426 22.6201C13.3516 22.869 13.8121 22.9997 14.2804 23H18.2506C18.9797 23 19.6791 22.6839 20.1947 22.1213C20.7103 21.5587 21 20.7956 21 20V13.7C21 13.4613 20.9131 13.2324 20.7584 13.0636C20.6037 12.8948 20.3939 12.8 20.1752 12.8Z" fill="black"/>
</svg>
