<svg width="24" height="24" viewBox="0 0 24 24" fill="none" xmlns="http://www.w3.org/2000/svg">
<path d="M10.4916 12.2874H11.5084L11 10.6737L10.4916 12.2874ZM14.5367 10.5367V8.46331H12.4633L11 7L9.53669 8.46331H7.46331V10.5367L6 12L7.46331 13.4633V15.5367H9.53669L11 17L12.4633 15.5367H14.5367V13.4633L16 12L14.5367 10.5367ZM12.0168 13.7683L11.7073 12.8842H10.2927L9.9832 13.7683H9.14324L10.5579 9.78957H11.4421L12.8568 13.7683H12.0168V13.7683Z" fill="black"/>
<rect x="21.0621" y="8.47058" width="2.05793" height="7.05887" fill="black"/>
<path d="M19.2273 3.74371L2.71474 3.74371C1.70563 3.74371 0.880005 4.56934 0.880005 5.57845L0.880005 18.4216C0.880005 19.4307 1.70563 20.2563 2.71474 20.2563H19.2273C20.2364 20.2563 21.0621 19.4307 21.0621 18.4216V5.57845C21.0621 4.56934 20.2364 3.74371 19.2273 3.74371ZM19.2273 18.4308H2.71474L2.71474 5.56927L19.2273 5.56927V18.4308Z" fill="black"/>
</svg>
