<svg width="24" height="24" viewBox="0 0 24 24" fill="none" xmlns="http://www.w3.org/2000/svg">
<path fill-rule="evenodd" clip-rule="evenodd" d="M7.37838 6V7.5H4.45946V8.5H6.40541V10H4.45946V12H3L3 6H7.37838ZM3 19H5L5 14H3V19ZM7 19H9V14H7V19ZM11 19H13V14H11V19ZM15 19H21V14L15 14V19ZM14.1892 7.5V8.5C14.1892 9.3 13.5081 10 12.7297 10H10.7838V12H9.32432V6L12.7297 6C13.5081 6 14.1892 6.7 14.1892 7.5ZM12.7297 7.5H10.7838V8.5H12.7297V7.5ZM20.027 12H17.1081C16.573 12 16.1351 11.55 16.1351 11V10H17.5946V10.5H19.5405V9.5H17.1081C16.573 9.5 16.1351 9.05 16.1351 8.5V7C16.1351 6.45 16.573 6 17.1081 6H20.027C20.5622 6 21 6.45 21 7V8H19.5405V7.5H17.5946V8.5H20.027C20.5622 8.5 21 8.95 21 9.5V11C21 11.55 20.5622 12 20.027 12Z" fill="black"/>
</svg>
