<svg width="24" height="24" viewBox="0 0 24 24" fill="none" xmlns="http://www.w3.org/2000/svg">
<path d="M7 20C7.29 20 7.56 19.94 7.76 19.85C8.47 19.48 8.97 18.97 9.47 17.47C9.98 15.91 10.94 15.18 11.86 14.47C12.65 13.86 13.47 13.23 14.18 11.94C14.71 10.98 15 9.93 15 9C15 6.2 12.8 4 10 4C7.2 4 5 6.2 5 9H3C3 5.07 6.07 2 10 2C13.93 2 17 5.07 17 9C17 10.26 16.62 11.65 15.93 12.9C15.02 14.55 13.95 15.38 13.08 16.05C12.27 16.67 11.69 17.12 11.37 18.1C10.77 19.92 10 20.94 8.64 21.65C8.03073 21.9242 7.36248 22.0413 6.69629 21.9907C6.0301 21.9402 5.38719 21.7235 4.82629 21.3605C4.26539 20.9975 3.80438 20.4998 3.48535 19.9127C3.16633 19.3257 2.99946 18.6681 3 18H5C5 19.1 5.9 20 7 20ZM16.36 2.64L17.78 1.22C19.77 3.21 21 5.96 21 9C21 12.04 19.77 14.79 17.78 16.78L16.37 15.37C17.99 13.74 19 11.49 19 9C19 6.51 17.99 4.26 16.36 2.64V2.64ZM12.5 9C12.5 9.66304 12.2366 10.2989 11.7678 10.7678C11.2989 11.2366 10.663 11.5 10 11.5C9.33696 11.5 8.70107 11.2366 8.23223 10.7678C7.76339 10.2989 7.5 9.66304 7.5 9C7.5 8.33696 7.76339 7.70107 8.23223 7.23223C8.70107 6.76339 9.33696 6.5 10 6.5C10.663 6.5 11.2989 6.76339 11.7678 7.23223C12.2366 7.70107 12.5 8.33696 12.5 9V9Z" fill="black"/>
</svg>
