<svg width="24" height="24" viewBox="0 0 24 24" fill="none" xmlns="http://www.w3.org/2000/svg">
<path d="M12 1.42525C9.61305 1.42525 7.32387 2.37346 5.63604 4.06129C3.94821 5.74911 3 8.0383 3 10.4252L3 17.4252C3 18.5252 3.9 19.4252 5 19.4252H9V11.4252H5V10.4252C5 6.55525 8.13 3.42525 12 3.42525C15.87 3.42525 19 6.55525 19 10.4252V11.4252H15L15 19.4252H19C20.1 19.4252 21 18.5252 21 17.4252V10.4252C21 8.0383 20.0518 5.74911 18.364 4.06129C16.6761 2.37346 14.3869 1.42525 12 1.42525ZM7 13.4252L7 17.4252H5V13.4252H7ZM19 17.4252H17V13.4252H19V17.4252Z" fill="black"/>
<path d="M15 22.5748V20.5748H17V22.5748H15ZM11 22.5748V20.5748H13V22.5748H11ZM7 22.5748V20.5748H9V22.5748H7Z" fill="black"/>
</svg>
