<svg width="24" height="24" viewBox="0 0 24 24" fill="none" xmlns="http://www.w3.org/2000/svg">
<path d="M12 2C13.8565 2 15.637 2.7375 16.9497 4.05025C18.2625 5.36301 19 7.14348 19 9C19 11.38 17.81 13.47 16 14.74V17C16 17.2652 15.8946 17.5196 15.7071 17.7071C15.5196 17.8946 15.2652 18 15 18H9C8.73478 18 8.48043 17.8946 8.29289 17.7071C8.10536 17.5196 8 17.2652 8 17V14.74C6.19 13.47 5 11.38 5 9C5 7.14348 5.7375 5.36301 7.05025 4.05025C8.36301 2.7375 10.1435 2 12 2M9 21V20H15V21C15 21.2652 14.8946 21.5196 14.7071 21.7071C14.5196 21.8946 14.2652 22 14 22H10C9.73478 22 9.48043 21.8946 9.29289 21.7071C9.10536 21.5196 9 21.2652 9 21ZM12 4C10.6739 4 9.40215 4.52678 8.46447 5.46447C7.52678 6.40215 7 7.67392 7 9C7 11.05 8.23 12.81 10 13.58V16H14V13.58C15.77 12.81 17 11.05 17 9C17 7.67392 16.4732 6.40215 15.5355 5.46447C14.5979 4.52678 13.3261 4 12 4V4Z" fill="black"/>
</svg>
