<svg width="24" height="24" viewBox="0 0 24 24" fill="none" xmlns="http://www.w3.org/2000/svg">
<path d="M13.2691 22H9.72914C9.47914 22 9.26914 21.82 9.22914 21.58L8.85914 18.93C8.22914 18.68 7.68914 18.34 7.16914 17.94L4.67914 18.95C4.45914 19.03 4.18914 18.95 4.06914 18.73L2.06914 15.27C2.00794 15.167 1.98636 15.0452 2.00845 14.9274C2.03053 14.8096 2.09477 14.7039 2.18914 14.63L4.29914 12.97L4.22914 12L4.29914 11L2.18914 9.37C2.09477 9.29613 2.03053 9.19042 2.00845 9.07263C1.98636 8.95484 2.00794 8.83304 2.06914 8.73L4.06914 5.27C4.18914 5.05 4.45914 4.96 4.67914 5.05L7.16914 6.05C7.68914 5.66 8.22914 5.32 8.85914 5.07L9.22914 2.42C9.26914 2.18 9.47914 2 9.72914 2H13.7291C13.9791 2 14.1891 2.18 14.2291 2.42L14.5991 5.07C15.2291 5.32 15.7691 5.66 16.2891 6.05L18.7791 5.05C18.9991 4.96 19.2691 5.05 19.3891 5.27L21.3891 8.73C21.5191 8.95 21.4591 9.22 21.2691 9.37L19.1591 11L19.2291 12V12.19C18.7291 12.07 18.2291 12 17.7291 12C17.5591 12 17.3891 12 17.2291 12.03C17.2291 11.41 17.1291 10.79 16.9291 10.2L19.0391 8.65L18.2891 7.35L15.8791 8.39C15.0934 7.48032 14.0275 6.85767 12.8491 6.62L12.4791 4H10.9791L10.6091 6.61C9.40914 6.86 8.34914 7.5 7.57914 8.39L5.16914 7.35L4.41914 8.65L6.52914 10.2C6.12914 11.3667 6.12914 12.6333 6.52914 13.8L4.40914 15.36L5.15914 16.66L7.58914 15.62C8.35914 16.5 9.40914 17.14 10.5991 17.38L10.9691 20H12.0791C12.3391 20.75 12.7291 21.42 13.2691 22ZM12.0891 15.96C11.9691 16 11.8491 16 11.7291 16C9.51914 16 7.72914 14.21 7.72914 12C7.72914 9.79 9.51914 8 11.7291 8C13.9391 8 15.7291 9.79 15.7291 12C15.7291 12.12 15.7291 12.24 15.6891 12.36C14.8634 12.6621 14.1134 13.1408 13.4917 13.7625C12.8699 14.3843 12.3913 15.1342 12.0891 15.96ZM13.7291 12C13.7291 10.9 12.8391 10 11.7291 10C10.6191 10 9.72914 10.9 9.72914 12C9.72914 13.1 10.6291 14 11.7291 14C12.8291 14 13.7291 13.11 13.7291 12Z" fill="black"/>
<path d="M21.7546 18.74L20.9346 18.11V17.89L21.7346 17.26C21.8946 17.14 21.9346 16.92 21.8346 16.75L20.9846 15.27C20.9496 15.2083 20.8986 15.1572 20.8371 15.122C20.7755 15.0868 20.7055 15.0688 20.6346 15.07C20.5846 15.07 20.5346 15.08 20.4846 15.1L19.5346 15.48C19.4546 15.43 19.4246 15.41 19.3446 15.37L19.1946 14.36C19.183 14.2617 19.136 14.1709 19.0624 14.1047C18.9888 14.0385 18.8936 14.0013 18.7946 14H17.0846C16.8846 14 16.7146 14.15 16.6846 14.34L16.5446 15.35C16.5146 15.37 16.4746 15.38 16.4446 15.4L16.3546 15.46L15.4046 15.08C15.3148 15.043 15.2146 15.0398 15.1227 15.0711C15.0307 15.1023 14.9532 15.1659 14.9046 15.25L14.0546 16.73C13.9546 16.9 13.9946 17.12 14.1546 17.24L14.9546 17.87V18.1L14.1546 18.73C14.0782 18.7879 14.0257 18.8718 14.0073 18.9659C13.9888 19.06 14.0057 19.1576 14.0546 19.24L14.9046 20.72C14.9746 20.85 15.1146 20.92 15.2546 20.92C15.3046 20.92 15.3546 20.91 15.4046 20.89L16.3546 20.52C16.4346 20.57 16.4746 20.59 16.5546 20.63L16.7046 21.64C16.7346 21.84 16.9046 21.98 17.1046 21.98H18.8146C19.0146 21.98 19.1846 21.83 19.2146 21.64L19.3646 20.63C19.3946 20.61 19.4346 20.6 19.4646 20.58L19.5546 20.52L20.5046 20.9C20.5944 20.937 20.6946 20.9402 20.7866 20.9089C20.8785 20.8777 20.956 20.8141 21.0046 20.73L21.8546 19.25C21.9035 19.1676 21.9204 19.07 21.9019 18.9759C21.8835 18.8818 21.8311 18.7979 21.7546 18.74ZM17.9446 19.5C17.1146 19.5 16.4446 18.83 16.4446 18C16.4446 17.17 17.1146 16.5 17.9446 16.5C18.7746 16.5 19.4446 17.17 19.4446 18C19.4446 18.83 18.7746 19.5 17.9446 19.5Z" fill="black"/>
</svg>
