<svg width="24" height="24" viewBox="0 0 24 24" fill="none" xmlns="http://www.w3.org/2000/svg">
<path d="M5 3L19 3C19.5304 3 20.0391 3.21071 20.4142 3.58579C20.7893 3.96086 21 4.46957 21 5V19C21 19.5304 20.7893 20.0391 20.4142 20.4142C20.0391 20.7893 19.5304 21 19 21H5C4.46957 21 3.96086 20.7893 3.58579 20.4142C3.21071 20.0391 3 19.5304 3 19L3 5C3 4.46957 3.21071 3.96086 3.58579 3.58579C3.96086 3.21071 4.46957 3 5 3M15 10.5V9C15 8.46957 14.7893 7.96086 14.4142 7.58579C14.0391 7.21071 13.5304 7 13 7L9 7V17H13C13.5304 17 14.0391 16.7893 14.4142 16.4142C14.7893 16.0391 15 15.5304 15 15V13.5C15 12.7 14.3 12 13.5 12C14.3 12 15 11.3 15 10.5ZM13 15H11V13H13V15ZM13 11H11V9H13V11Z" fill="#0000FF"/>
</svg>
