<svg width="24" height="24" viewBox="0 0 24 24" fill="none" xmlns="http://www.w3.org/2000/svg">
<path d="M21.12 7.88L19.58 9.42C19.85 10.23 20 11.1 20 12C20 16.41 16.41 20 12 20C7.59 20 4 16.41 4 12C4 7.59 7.59 4 12 4C12.9 4 13.77 4.15 14.58 4.42L16.11 2.89C14.85 2.32 13.46 2 12 2C6.48 2 2 6.48 2 12C2 17.52 6.48 22 12 22C17.52 22 22 17.52 22 12C22 10.53 21.68 9.14 21.12 7.88Z" fill="black"/>
<path d="M10.5816 13.4184C10.7658 13.6028 10.9845 13.749 11.2253 13.8488C11.466 13.9486 11.7241 14 11.9847 14C12.2453 14 12.5034 13.9486 12.7441 13.8488C12.9849 13.749 13.2036 13.6028 13.3878 13.4184L19 5L10.5816 10.6122C10.3972 10.7964 10.251 11.0151 10.1512 11.2559C10.0514 11.4966 10 11.7547 10 12.0153C10 12.2759 10.0514 12.534 10.1512 12.7747C10.251 13.0155 10.3972 13.2342 10.5816 13.4184Z" fill="black"/>
</svg>
