<svg width="24" height="24" viewBox="0 0 24 24" fill="none" xmlns="http://www.w3.org/2000/svg">
<path d="M20.79 13.95L18.46 14.57L16.46 13.44V10.56L18.46 9.43L20.79 10.05L21.31 8.12L19.54 7.65L20 5.88L18.07 5.36L17.45 7.69L15.45 8.82L13 7.38V5.12L14.71 3.41L13.29 2L12 3.29L10.71 2L9.29001 3.41L11 5.12V7.38L8.50001 8.82L6.50001 7.69L5.92001 5.36L4.00001 5.88L4.47001 7.65L2.70001 8.12L3.22001 10.05L5.55001 9.43L7.55001 10.56L7.55001 13.45L5.55001 14.58L3.22001 13.96L2.70001 15.89L4.47001 16.36L4.00001 18.12L5.93001 18.64L6.55001 16.31L8.55001 15.18L11 16.62V18.88L9.29001 20.59L10.71 22L12 20.71L13.29 22L14.7 20.59L13 18.88V16.62L15.5 15.17L17.5 16.3L18.12 18.63L20 18.12L19.53 16.35L21.3 15.88L20.79 13.95V13.95ZM9.50001 10.56L12 9.11L14.5 10.56V13.44L12 14.89L9.50001 13.44V10.56V10.56Z" fill="black"/>
</svg>
