<svg width="24" height="24" viewBox="0 0 24 24" fill="none" xmlns="http://www.w3.org/2000/svg">
<path d="M3 9.00001V15H7L12 20V4.00001L7 9.00001H3ZM10 8.83001V15.17L7.83 13H5V11H7.83L10 8.83001ZM16.5 12C16.4998 11.1621 16.2657 10.341 15.824 9.62895C15.3823 8.91695 14.7506 8.3424 14 7.97001V16.02C15.48 15.29 16.5 13.77 16.5 12ZM14 3.23001V5.29001C16.89 6.15001 19 8.83001 19 12C19 15.17 16.89 17.85 14 18.71V20.77C18.01 19.86 21 16.28 21 12C21 7.72001 18.01 4.14001 14 3.23001V3.23001Z" fill="black"/>
</svg>
