<svg width="24" height="24" viewBox="0 0 24 24" fill="none" xmlns="http://www.w3.org/2000/svg">
<path d="M17 1.01L7 1C5.9 1 5 1.9 5 3V7H7V3L17 3V21H7V17H5V21C5 22.1 5.9 23 7 23H17C18.1 23 19 22.1 19 21V3C19 1.9 18.1 1.01 17 1.01Z" fill="black"/>
<path d="M1 8L1 9.6H2.5L2.5 16H4L4 8H1Z" fill="black"/>
<path d="M5 8V9.6H8.33333V11.2H6.66667C6.22464 11.2 5.80072 11.3686 5.48816 11.6686C5.1756 11.9687 5 12.3757 5 12.8V16H10V14.4H6.66667V12.8H8.33333C8.77536 12.8 9.19928 12.6314 9.51184 12.3314C9.8244 12.0313 10 11.6243 10 11.2V9.6C10 9.17565 9.8244 8.76869 9.51184 8.46863C9.19928 8.16857 8.77536 8 8.33333 8H5Z" fill="black"/>
<path d="M12.6667 9.1H12.1667V9.6V14.4V14.9H12.6667H14.3333H14.8333V14.4V9.6V9.1H14.3333H12.6667ZM11.8344 8.82932C12.0518 8.62065 12.3508 8.5 12.6667 8.5H14.3333C14.6492 8.5 14.9482 8.62065 15.1656 8.82932C15.3823 9.03733 15.5 9.315 15.5 9.6V14.4C15.5 14.685 15.3823 14.9627 15.1656 15.1707C14.9482 15.3794 14.6492 15.5 14.3333 15.5H12.6667C12.3508 15.5 12.0518 15.3794 11.8344 15.1707C11.6177 14.9627 11.5 14.685 11.5 14.4V9.6C11.5 9.315 11.6177 9.03733 11.8344 8.82932Z" fill="black" stroke="black"/>
</svg>
