<svg width="24" height="24" viewBox="0 0 24 24" fill="none" xmlns="http://www.w3.org/2000/svg">
<path d="M10 14.4V13.2C10 12.8817 9.8683 12.5765 9.63388 12.3515C9.39946 12.1264 9.08152 12 8.75 12C9.08152 12 9.39946 11.8736 9.63388 11.6485C9.8683 11.4235 10 11.1183 10 10.8V9.6C10 9.17565 9.8244 8.76869 9.51184 8.46863C9.19928 8.16857 8.77536 8 8.33333 8H5V9.6H8.33333V11.2H6.66667V12.8H8.33333V14.4H5V16H8.33333C8.77536 16 9.19928 15.8314 9.51184 15.5314C9.8244 15.2313 10 14.8243 10 14.4Z" fill="black"/>
<path d="M12.6667 8C12.2246 8 11.8007 8.16857 11.4882 8.46863C11.1756 8.76869 11 9.17565 11 9.6V14.4C11 14.8243 11.1756 15.2313 11.4882 15.5314C11.8007 15.8314 12.2246 16 12.6667 16H14.3333C14.7754 16 15.1993 15.8314 15.5118 15.5314C15.8244 15.2313 16 14.8243 16 14.4V9.6C16 9.17565 15.8244 8.76869 15.5118 8.46863C15.1993 8.16857 14.7754 8 14.3333 8H12.6667ZM12.6667 9.6H14.3333V14.4H12.6667V9.6Z" fill="black"/>
<path d="M17 1.01L7 1C5.9 1 5 1.9 5 3V7H7V3L17 3V21H7V17H5V21C5 22.1 5.9 23 7 23H17C18.1 23 19 22.1 19 21V3C19 1.9 18.1 1.01 17 1.01Z" fill="black"/>
</svg>
