<svg width="24" height="24" viewBox="0 0 24 24" fill="none" xmlns="http://www.w3.org/2000/svg">
<path d="M17 1.01L7 1C5.9 1 5 1.9 5 3V7H7V3L17 3V21H7V17H5V21C5 22.1 5.9 23 7 23H17C18.1 23 19 22.1 19 21V3C19 1.9 18.1 1.01 17 1.01Z" fill="black"/>
<path d="M11 8V12.8H14.3333V14.4H11V16H14.3333C14.7754 16 15.1993 15.8314 15.5118 15.5314C15.8244 15.2313 16 14.8243 16 14.4V12.8C16 12.3757 15.8244 11.9687 15.5118 11.6686C15.1993 11.3686 14.7754 11.2 14.3333 11.2H12.6667V9.6H16V8H11Z" fill="black"/>
<path d="M5 8V12.8H8.33333V16H10V8H8.33333V11.2H6.66667V8H5Z" fill="black"/>
</svg>
