<svg width="24" height="24" viewBox="0 0 24 24" fill="none" xmlns="http://www.w3.org/2000/svg">
<path d="M17.0006 3.01L17 15L19 17L19.0006 3.01C19.0006 1.91 18.1006 1.02 17.0006 1.02L7 1C5.99937 0.989996 4.99937 1.99 4.99937 2.99L7 5L7.00063 3.01L17.0006 3.01ZM21.1906 21.2L19.0006 19.01L17.0006 17.01L7.00063 7.01L5.00063 5.01L2.81063 2.82L1.39062 4.23L5.00063 7.84L5.00063 21.01C5.00063 22.11 5.90063 23.01 7.00063 23.01H17.0006C17.8506 23.01 18.5806 22.46 18.8706 21.71L19.7806 22.62L21.1906 21.2ZM17.0006 21.01H7.00063L17 21L17.0006 20.01V21.01ZM7.00063 21.01L7.00063 9.84L17.0006 20.01L17 21L7.00063 21.01Z" fill="black"/>
</svg>
